<svg xmlns="http://www.w3.org/2000/svg" viewBox="0 0 32 32"><title>OfficeCore10_32x_24x_20x_16x_01-22-2019</title><g id="STYLE_COLOR" data-name="STYLE = COLOR"><path d="M9.33319,2H30.66656a1.33331,1.33331,0,0,1,1.33331,1.33331V28.66666A1.33331,1.33331,0,0,1,30.66656,30H9.33325A1.33337,1.33337,0,0,1,7.99988,28.6666V3.33331A1.33331,1.33331,0,0,1,9.33319,2Z" fill="#ca64ea"/><path d="M31.99988,3.33337A1.33334,1.33334,0,0,0,30.6665,2.00006H9.33319A1.33328,1.33328,0,0,0,7.99988,3.33337V28.66668A1.33329,1.33329,0,0,0,9.33319,30H24.99982L31.99988,9.00006Z" fill="#ca64ea"/><polygon points="32 9 25 9 25 16 28.5 19.195 32 16 32 9" fill="#ae4bd5"/><polygon points="32 16 25 16 25 23 28.5 26.395 32 23 32 16" fill="#9332bf"/><path d="M24.99985,23h7a0,0,0,0,1,0,0v5.66667A1.33333,1.33333,0,0,1,30.66652,30H24.99985a0,0,0,0,1,0,0V23A0,0,0,0,1,24.99985,23Z" fill="#7719aa"/><path d="M16.66663,7H8V26h8.66663A1.33732,1.33732,0,0,0,18,24.66663V8.33331A1.33727,1.33727,0,0,0,16.66663,7Z" opacity="0.1"/><path d="M15.66663,8H8V27h7.66663A1.33732,1.33732,0,0,0,17,25.66663V9.33331A1.33727,1.33727,0,0,0,15.66663,8Z" opacity="0.2"/><path d="M15.66663,8H8V25h7.66663A1.33732,1.33732,0,0,0,17,23.66663V9.33331A1.33727,1.33727,0,0,0,15.66663,8Z" opacity="0.3"/><path d="M14.66663,8H8V25h6.66663A1.33732,1.33732,0,0,0,16,23.66663V9.33331A1.33727,1.33727,0,0,0,14.66663,8Z" opacity="0.2"/><path id="Back_Plate" data-name="Back Plate" d="M1.33333,8H14.66669A1.33334,1.33334,0,0,1,16,9.33334V22.66666A1.33333,1.33333,0,0,1,14.6667,24H1.33334A1.33334,1.33334,0,0,1,0,22.66666V9.33333A1.33333,1.33333,0,0,1,1.33333,8Z" fill="#7719aa"/><path d="M4.00149,11H6.131l3.65645,6.73163q.28575.43554.42862.70076h.02721a9.49314,9.49314,0,0,1-.06123-1.32667V11h1.81652V21H10.00513L6.1922,14.37073a5.13336,5.13336,0,0,1-.3878-.68714h-.034a13.6282,13.6282,0,0,1,.05442,1.45593V21H4.00149Z" fill="#fff"/><rect width="32" height="32" fill="none"/></g></svg>